<svg width="40" height="38" viewBox="0 0 40 38" fill="none" xmlns="http://www.w3.org/2000/svg">
<g filter="url(#filter0_d_11_116)">
<path d="M36.4285 3.35711H28.9285V0.499965C28.9285 0.303537 28.7678 0.142822 28.5714 0.142822H26.0714C25.875 0.142822 25.7143 0.303537 25.7143 0.499965V3.35711H14.2857V0.499965C14.2857 0.303537 14.125 0.142822 13.9285 0.142822H11.4285C11.2321 0.142822 11.0714 0.303537 11.0714 0.499965V3.35711H3.57139C2.78122 3.35711 2.14282 3.9955 2.14282 4.78568V34.4285C2.14282 35.2187 2.78122 35.8571 3.57139 35.8571H36.4285C37.2187 35.8571 37.8571 35.2187 37.8571 34.4285V4.78568C37.8571 3.9955 37.2187 3.35711 36.4285 3.35711ZM34.6428 32.6428H5.35711V15.6785H34.6428V32.6428ZM5.35711 12.6428V6.57139H11.0714V8.71425C11.0714 8.91068 11.2321 9.07139 11.4285 9.07139H13.9285C14.125 9.07139 14.2857 8.91068 14.2857 8.71425V6.57139H25.7143V8.71425C25.7143 8.91068 25.875 9.07139 26.0714 9.07139H28.5714C28.7678 9.07139 28.9285 8.91068 28.9285 8.71425V6.57139H34.6428V12.6428H5.35711Z" fill="black"/>
</g>
<defs>
<filter id="filter0_d_11_116" x="-1.85718" y="0.142822" width="43.7144" height="43.7142" filterUnits="userSpaceOnUse" color-interpolation-filters="sRGB">
<feFlood flood-opacity="0" result="BackgroundImageFix"/>
<feColorMatrix in="SourceAlpha" type="matrix" values="0 0 0 0 0 0 0 0 0 0 0 0 0 0 0 0 0 0 127 0" result="hardAlpha"/>
<feOffset dy="4"/>
<feGaussianBlur stdDeviation="2"/>
<feComposite in2="hardAlpha" operator="out"/>
<feColorMatrix type="matrix" values="0 0 0 0 0 0 0 0 0 0 0 0 0 0 0 0 0 0 0.25 0"/>
<feBlend mode="normal" in2="BackgroundImageFix" result="effect1_dropShadow_11_116"/>
<feBlend mode="normal" in="SourceGraphic" in2="effect1_dropShadow_11_116" result="shape"/>
</filter>
</defs>
</svg>
