<svg width="40" height="36" viewBox="0 0 40 36" fill="none" xmlns="http://www.w3.org/2000/svg">
<path d="M38.3483 7.80359C37.7499 6.41805 36.8871 5.16247 35.8081 4.10717C34.7283 3.04871 33.4553 2.20757 32.0581 1.62949C30.6093 1.02767 29.0555 0.719626 27.4867 0.723237C25.2858 0.723237 23.1385 1.32592 21.2724 2.46431C20.826 2.73663 20.4019 3.03574 20.0001 3.36163C19.5983 3.03574 19.1742 2.73663 18.7277 2.46431C16.8617 1.32592 14.7144 0.723237 12.5135 0.723237C10.9286 0.723237 9.39293 1.02681 7.94203 1.62949C6.54025 2.20984 5.27686 3.04467 4.19203 4.10717C3.11166 5.16128 2.24863 6.41715 1.65186 7.80359C1.03132 9.24556 0.714355 10.7768 0.714355 12.3527C0.714355 13.8393 1.01793 15.3884 1.62061 16.9643C2.12507 18.2813 2.84828 19.6473 3.77239 21.0268C5.23668 23.2098 7.25007 25.4866 9.75007 27.7947C13.8929 31.6206 17.9956 34.2634 18.1697 34.3706L19.2277 35.0491C19.6965 35.3482 20.2992 35.3482 20.7679 35.0491L21.826 34.3706C22.0001 34.259 26.0983 31.6206 30.2456 27.7947C32.7456 25.4866 34.759 23.2098 36.2233 21.0268C37.1474 19.6473 37.8751 18.2813 38.3751 16.9643C38.9777 15.3884 39.2813 13.8393 39.2813 12.3527C39.2858 10.7768 38.9688 9.24556 38.3483 7.80359Z" fill="#E90019"/>
</svg>
