<svg width="40" height="40" viewBox="0 0 40 40" fill="none" xmlns="http://www.w3.org/2000/svg">
<path d="M29.4822 7.18309C26.9509 4.70987 23.5849 3.34827 20 3.34827C16.4152 3.34827 13.0491 4.70987 10.5179 7.17862C7.99557 9.64291 6.60718 12.9108 6.60718 16.3884C6.60718 27.1608 17.0581 34.567 20 36.4376C22.942 34.567 33.3929 27.1608 33.3929 16.3884C33.3929 12.9108 32.0045 9.64291 29.4822 7.18309ZM20 24.5983C15.6607 24.5983 12.1429 21.0804 12.1429 16.7411C12.1429 12.4018 15.6607 8.88398 20 8.88398C24.3393 8.88398 27.8572 12.4018 27.8572 16.7411C27.8572 21.0804 24.3393 24.5983 20 24.5983Z" fill="#E6E6E6"/>
<path d="M20 8.88391C15.6607 8.88391 12.1428 12.4018 12.1428 16.7411C12.1428 21.0803 15.6607 24.5982 20 24.5982C24.3393 24.5982 27.8571 21.0803 27.8571 16.7411C27.8571 12.4018 24.3393 8.88391 20 8.88391ZM23.5357 20.2768C23.0719 20.7418 22.5208 21.1106 21.914 21.3619C21.3072 21.6132 20.6567 21.7421 20 21.7411C18.6651 21.7411 17.4107 21.2187 16.4643 20.2768C15.9992 19.813 15.6304 19.2619 15.3791 18.6551C15.1278 18.0483 14.9989 17.3978 15 16.7411C15 15.4062 15.5223 14.1518 16.4643 13.2053C17.4107 12.2589 18.6651 11.7411 20 11.7411C21.3348 11.7411 22.5893 12.2589 23.5357 13.2053C24.4821 14.1518 25 15.4062 25 16.7411C25 18.0759 24.4821 19.3303 23.5357 20.2768Z" fill="#333333"/>
<path d="M35.2946 10.0491C34.4541 8.11106 33.2424 6.35632 31.7276 4.88391C30.208 3.3982 28.4164 2.21899 26.4509 1.4107C24.4062 0.562483 22.2366 0.133911 20 0.133911C17.7634 0.133911 15.5937 0.562483 13.5491 1.40623C11.5714 2.2232 9.79907 3.39284 8.27229 4.87945C6.75855 6.35269 5.54691 8.10721 4.70532 10.0446C3.83479 12.0536 3.39282 14.1875 3.39282 16.3839C3.39282 19.5357 4.14729 22.6741 5.62943 25.7009C6.82139 28.1339 8.48657 30.5044 10.5848 32.7589C14.1696 36.6071 17.9285 38.9598 18.9955 39.5893C19.2984 39.7681 19.6438 39.8622 19.9955 39.8616C20.3437 39.8616 20.6875 39.7723 20.9955 39.5893C22.0625 38.9598 25.8214 36.6071 29.4062 32.7589C31.5044 30.5089 33.1696 28.1339 34.3616 25.7009C35.8526 22.6786 36.6071 19.5446 36.6071 16.3884C36.6071 14.1919 36.1651 12.058 35.2946 10.0491ZM20 36.4375C17.058 34.5669 6.60711 27.1607 6.60711 16.3884C6.60711 12.9107 7.9955 9.64284 10.5178 7.17855C13.0491 4.7098 16.4151 3.3482 20 3.3482C23.5848 3.3482 26.9509 4.7098 29.4821 7.18302C32.0044 9.64284 33.3928 12.9107 33.3928 16.3884C33.3928 27.1607 22.9419 34.5669 20 36.4375Z" fill="#333333"/>
</svg>
